<svg height="1262" width="720" xmlns="http://www.w3.org/2000/svg">
<rect height="1262" fill="#555" width="720"></rect>
<text fill="#7f7" font-family="Courier New" font-size="12" xml:space="preserve">
<tspan x="10" y="26">16 megabytes installed</tspan>
<tspan x="10" y="42"></tspan>
<tspan x="10" y="58">node_modules</tspan>
<tspan x="10" y="74">└─┬ wakatimecli@0.1.9 </tspan>
<tspan x="10" y="90">  ├── bluebird@2.11.0 </tspan>
<tspan x="10" y="106">  ├─┬ cli-color@0.3.3 </tspan>
<tspan x="10" y="122">  │ ├── d@0.1.1 </tspan>
<tspan x="10" y="138">  │ ├─┬ es5-ext@0.10.15 </tspan>
<tspan x="10" y="154">  │ │ ├─┬ es6-iterator@2.0.1 </tspan>
<tspan x="10" y="170">  │ │ │ └── d@1.0.0 </tspan>
<tspan x="10" y="186">  │ │ └─┬ es6-symbol@3.1.1 </tspan>
<tspan x="10" y="202">  │ │   └── d@1.0.0 </tspan>
<tspan x="10" y="218">  │ ├─┬ memoizee@0.3.10 </tspan>
<tspan x="10" y="234">  │ │ ├─┬ es6-weak-map@0.1.4 </tspan>
<tspan x="10" y="250">  │ │ │ ├── es6-iterator@0.1.3 </tspan>
<tspan x="10" y="266">  │ │ │ └── es6-symbol@2.0.1 </tspan>
<tspan x="10" y="282">  │ │ ├─┬ event-emitter@0.3.5 </tspan>
<tspan x="10" y="298">  │ │ │ └── d@1.0.0 </tspan>
<tspan x="10" y="314">  │ │ ├── lru-queue@0.1.0 </tspan>
<tspan x="10" y="330">  │ │ └── next-tick@0.2.2 </tspan>
<tspan x="10" y="346">  │ └─┬ timers-ext@0.1.2 </tspan>
<tspan x="10" y="362">  │   └── next-tick@1.0.0 </tspan>
<tspan x="10" y="378">  ├── moment@2.18.1 </tspan>
<tspan x="10" y="394">  └─┬ request@2.81.0 </tspan>
<tspan x="10" y="410">    ├── aws-sign2@0.6.0 </tspan>
<tspan x="10" y="426">    ├── aws4@1.6.0 </tspan>
<tspan x="10" y="442">    ├── caseless@0.12.0 </tspan>
<tspan x="10" y="458">    ├─┬ combined-stream@1.0.5 </tspan>
<tspan x="10" y="474">    │ └── delayed-stream@1.0.0 </tspan>
<tspan x="10" y="490">    ├── extend@3.0.0 </tspan>
<tspan x="10" y="506">    ├── forever-agent@0.6.1 </tspan>
<tspan x="10" y="522">    ├─┬ form-data@2.1.4 </tspan>
<tspan x="10" y="538">    │ └── asynckit@0.4.0 </tspan>
<tspan x="10" y="554">    ├─┬ har-validator@4.2.1 </tspan>
<tspan x="10" y="570">    │ ├─┬ ajv@4.11.7 </tspan>
<tspan x="10" y="586">    │ │ ├── co@4.6.0 </tspan>
<tspan x="10" y="602">    │ │ └─┬ json-stable-stringify@1.0.1 </tspan>
<tspan x="10" y="618">    │ │   └── jsonify@0.0.0 </tspan>
<tspan x="10" y="634">    │ └── har-schema@1.0.5 </tspan>
<tspan x="10" y="650">    ├─┬ hawk@3.1.3 </tspan>
<tspan x="10" y="666">    │ ├── boom@2.10.1 </tspan>
<tspan x="10" y="682">    │ ├── cryptiles@2.0.5 </tspan>
<tspan x="10" y="698">    │ ├── hoek@2.16.3 </tspan>
<tspan x="10" y="714">    │ └── sntp@1.0.9 </tspan>
<tspan x="10" y="730">    ├─┬ http-signature@1.1.1 </tspan>
<tspan x="10" y="746">    │ ├── assert-plus@0.2.0 </tspan>
<tspan x="10" y="762">    │ ├─┬ jsprim@1.4.0 </tspan>
<tspan x="10" y="778">    │ │ ├── assert-plus@1.0.0 </tspan>
<tspan x="10" y="794">    │ │ ├── extsprintf@1.0.2 </tspan>
<tspan x="10" y="810">    │ │ ├── json-schema@0.2.3 </tspan>
<tspan x="10" y="826">    │ │ └── verror@1.3.6 </tspan>
<tspan x="10" y="842">    │ └─┬ sshpk@1.13.0 </tspan>
<tspan x="10" y="858">    │   ├── asn1@0.2.3 </tspan>
<tspan x="10" y="874">    │   ├── assert-plus@1.0.0 </tspan>
<tspan x="10" y="890">    │   ├── bcrypt-pbkdf@1.0.1 </tspan>
<tspan x="10" y="906">    │   ├─┬ dashdash@1.14.1 </tspan>
<tspan x="10" y="922">    │   │ └── assert-plus@1.0.0 </tspan>
<tspan x="10" y="938">    │   ├── ecc-jsbn@0.1.1 </tspan>
<tspan x="10" y="954">    │   ├─┬ getpass@0.1.6 </tspan>
<tspan x="10" y="970">    │   │ └── assert-plus@1.0.0 </tspan>
<tspan x="10" y="986">    │   ├── jodid25519@1.0.2 </tspan>
<tspan x="10" y="1002">    │   ├── jsbn@0.1.1 </tspan>
<tspan x="10" y="1018">    │   └── tweetnacl@0.14.5 </tspan>
<tspan x="10" y="1034">    ├── is-typedarray@1.0.0 </tspan>
<tspan x="10" y="1050">    ├── isstream@0.1.2 </tspan>
<tspan x="10" y="1066">    ├── json-stringify-safe@5.0.1 </tspan>
<tspan x="10" y="1082">    ├─┬ mime-types@2.1.15 </tspan>
<tspan x="10" y="1098">    │ └── mime-db@1.27.0 </tspan>
<tspan x="10" y="1114">    ├── oauth-sign@0.8.2 </tspan>
<tspan x="10" y="1130">    ├── performance-now@0.2.0 </tspan>
<tspan x="10" y="1146">    ├── qs@6.4.0 </tspan>
<tspan x="10" y="1162">    ├── safe-buffer@5.0.1 </tspan>
<tspan x="10" y="1178">    ├── stringstream@0.0.5 </tspan>
<tspan x="10" y="1194">    ├─┬ tough-cookie@2.3.2 </tspan>
<tspan x="10" y="1210">    │ └── punycode@1.4.1 </tspan>
<tspan x="10" y="1226">    ├── tunnel-agent@0.6.0 </tspan>
<tspan x="10" y="1242">    └── uuid@3.0.1</tspan>
</text>
</svg>
